# xmcd
#
# Track frame offsets: 
#        150
#        14290
#        32931
#        52391
#        76349
#        96657
#        116009
#        133450
#        151007
#        174386
#        196035
#        211778
#        225710
#        247322
#        261379
#        279947
#        300165
#
# Disc length: 4312 seconds
#
# Revision: 0
# Processed by: cddbd v1.5.2PL0 Copyright (c) Steve Scherf et al.
# Submitted via: ExactAudioCopy v0.99pb5
#
DISCID=ee10d611
DTITLE=Litter  - Re - Emerge  
DYEAR=1900
DGENRE=
TTITLE0=The Litter - Action Woman
TTITLE1=The Litter - Too Hot To Handle
TTITLE2=The Litter - Takedown
TTITLE3=The Litter - City Of Tears
TTITLE4=The Litter - Slipwaway
TTITLE5=The Litter - Climbing To The Top
TTITLE6=The Litter - Starting Over Again
TTITLE7=The Litter - You Don't Fool Me
TTITLE8=The Litter - Stay With Me
TTITLE9=The Litter - Mother Starship
TTITLE10=The Litter - Love Is Just A Word
TTITLE11=The Litter - Don't Make Me Go It Alone
TTITLE12=The Litter - I Think Of You
TTITLE13=The Litter - Takedown (Original Version)
TTITLE14=The Litter - Staring Over Again (Original Version)
TTITLE15=The Litter - Slipaway (Original Version)
TTITLE16=The Litter - Spider Lady
EXTD=
EXTT0=
EXTT1=
EXTT2=
EXTT3=
EXTT4=
EXTT5=
EXTT6=
EXTT7=
EXTT8=
EXTT9=
EXTT10=
EXTT11=
EXTT12=
EXTT13=
EXTT14=
EXTT15=
EXTT16=
PLAYORDER=
